<svg xmlns="http://www.w3.org/2000/svg" width="1000" height="500" viewBox="0 0 1000 500"><defs><clipPath><path d="M0 7000h9000V0H0v7000z"/></clipPath><clipPath><path d="M3196 1086.4h525.5V749.6H3196v336.8z"/></clipPath><clipPath id="c"><path d="M4046.3 2030.8h1906.3v-1427H4046.3v1427z"/></clipPath><clipPath id="d"><path d="M4046.3 2030.8h1906.3v-1427H4046.3v1427z"/></clipPath><clipPath id="e"><path d="M5852.4 2030.8H5368l-1321.7-1427h1768c53.4 0 96.7 44 96.7 98.5l41.6 1228.3c0 55.3-44.8 100.2-100.2 100.2"/></clipPath><clipPath id="a"><path d="M-20074 28074h32766V-4692h-32766v32766z"/></clipPath><clipPath id="b"><path d="M-20074 28074h32766V-4692h-32766v32766z"/></clipPath><linearGradient id="g" x2="1" gradientUnits="userSpaceOnUse" gradientTransform="matrix(1e-7,-1426.9512,-1426.9512,-1e-7,4999.4883,2030.7949)"><stop offset="0" stop-color="#fff"/><stop offset=".6" stop-color="#fff"/><stop offset=".7" stop-color="#231f20"/><stop offset="1" stop-color="#231f20"/></linearGradient><mask width="1" height="1" x="0" y="0" maskUnits="userSpaceOnUse"><g clip-path="url(#c)" opacity=".2"><g clip-path="url(#e)"><path fill="url(#g)" d="M5852.4 2030.8H5368l-1321.7-1427h1768c53.4 0 96.7 44 96.7 98.5l41.6 1228.3c0 55.3-44.8 100.2-100.2 100.2" mask="url(#f)"/></g></g></mask><clipPath><path d="M4046.3 2030.8h1906.3v-1427H4046.3v1427z"/></clipPath><linearGradient x2="1" gradientUnits="userSpaceOnUse" gradientTransform="matrix(1e-7,-1426.9512,-1426.9512,-1e-7,4999.4883,2030.7949)"><stop offset="0" stop-color="#fff"/><stop offset=".6" stop-color="#fff"/><stop offset=".7" stop-color="#fff"/><stop offset="1" stop-color="#fff"/></linearGradient><clipPath><path d="M7297.4 1177h186.2V600.5h-186.2V1177z"/></clipPath><clipPath id="j"><path d="M1959 3457.8h497v-522.4h-497v522.4z"/></clipPath><clipPath id="k"><path d="M1924.7 3499.5H2456v-564h-531.3v564z"/></clipPath><clipPath id="l"><path d="M2015.5 3427.2c90.7 72.3 258.8 12 375.4-134.3 26.7-33.7 48.4-69 65-104.2l-294.7-253.4c-35 25.6-68.7 57.8-99 95.8-116.6 146.5-137.6 323.8-46.8 396"/></clipPath><clipPath id="h"><path d="M-20074 28074h32766V-4692h-32766v32766z"/></clipPath><clipPath id="i"><path d="M-20074 28074h32766V-4692h-32766v32766z"/></clipPath><linearGradient id="n" x2="1" gradientUnits="userSpaceOnUse" gradientTransform="matrix(-307.05093,-260.95786,260.95786,-307.05093,2309.3059,3369.0967)"><stop offset="0" stop-color="#231f20"/><stop offset=".7" stop-color="#231f20"/><stop offset="1" stop-color="#393536"/></linearGradient><mask width="1" height="1" x="0" y="0" maskUnits="userSpaceOnUse"><g clip-path="url(#j)"><g clip-path="url(#l)"><path fill="url(#n)" d="M2015.5 3427.2c90.7 72.3 258.8 12 375.4-134.3 26.7-33.7 48.4-69 65-104.2l-294.7-253.4c-35 25.6-68.7 57.8-99 95.8-116.6 146.5-137.6 323.8-46.8 396" mask="url(#m)"/></g></g></mask><clipPath><path d="M1959 3457.8h497v-522.4h-497v522.4z"/></clipPath><linearGradient x2="1" gradientUnits="userSpaceOnUse" gradientTransform="matrix(-307.05093,-260.95786,260.95786,-307.05093,2309.3062,3369.0964)"><stop offset="0" stop-color="#fff"/><stop offset=".7" stop-color="#fff"/><stop offset="1" stop-color="#fff"/></linearGradient><clipPath id="q"><path d="M1698.5 3867.4h397.3v-409.6h-397.3v409.6z"/></clipPath><clipPath id="r"><path d="M1614.8 3867.4h481v-409.6h-481v409.6z"/></clipPath><clipPath id="s"><path d="M2095.8 3640.7c-136.8-11-248.2-69.5-296.8-183 0 0-184.2 186-53.8 409.7 14.6-5 29.7-10.8 45.2-17.6 91.5-40.2 198.4-112.5 305.4-209"/></clipPath><clipPath id="o"><path d="M-20074 28074h32766V-4692h-32766v32766z"/></clipPath><clipPath id="p"><path d="M-20074 28074h32766V-4692h-32766v32766z"/></clipPath><linearGradient id="u" x2="1" gradientUnits="userSpaceOnUse" gradientTransform="matrix(-318.24896,228.3517,-228.3517,-318.24896,1930.2534,3567.7832)"><stop offset="0" stop-color="#393536"/><stop offset=".5" stop-color="#231f20"/><stop offset="1" stop-color="#231f20"/></linearGradient><mask width="1" height="1" x="0" y="0" maskUnits="userSpaceOnUse"><g clip-path="url(#q)"><g clip-path="url(#s)"><path fill="url(#u)" d="M2095.8 3640.7c-136.8-11-248.2-69.5-296.8-183 0 0-184.2 186-53.8 409.7 14.6-5 29.7-10.8 45.2-17.6 91.5-40.2 198.4-112.5 305.4-209" mask="url(#t)"/></g></g></mask><clipPath><path d="M1698.5 3867.4h397.3v-409.6h-397.3v409.6z"/></clipPath><linearGradient x2="1" gradientUnits="userSpaceOnUse" gradientTransform="matrix(-318.24896,228.3517,-228.3517,-318.24896,1930.2533,3567.7832)"><stop offset="0" stop-color="#fff"/><stop offset=".5" stop-color="#fff"/><stop offset="1" stop-color="#fff"/></linearGradient><clipPath><path d="M1989.8 3335h4733.6V597.3H1989.8V3335z"/></clipPath><clipPath><path d="M396 203.3h3v-109h-3v109z"/></clipPath><clipPath><path d="M398.2 203.3h3.2v-109h-3.2v109z"/></clipPath><clipPath><path d="M400.5 203.3h3.2v-109h-3.2v109z"/></clipPath><clipPath><path d="M375.3 199h84v-97h-84v97z"/></clipPath><clipPath><path d="M421.5 199h48v-60h-48v60z"/></clipPath><clipPath><path d="M391.6 199h77.8v-97h-77.8v97z"/></clipPath><clipPath><path d="M487.3 397.7h32.4V390h-32.4v7.7z"/></clipPath><clipPath><path d="M484 390H516v-7.5H484v7.6z"/></clipPath><clipPath><path d="M322.4 77h2.3v-2.8h-2.3V77z"/></clipPath><clipPath><path d="M291 76.5h2.3V74H291v2.5z"/></clipPath><clipPath><path d="M348 98h14v-.8h-14v.8z"/></clipPath><clipPath><path d="M349.6 79.4h4v-4.2h-4v4.2z"/></clipPath><clipPath><path d="M344.8 85h40V37h-40v48z"/></clipPath><clipPath><path d="M309 259h4v-7.7h-4v7.8z"/></clipPath><clipPath><path d="M310 256.6h10.7v-8.8H310v8.8z"/></clipPath><clipPath><path d="M293.6 256h10.7v-8.7h-10.7v8.8z"/></clipPath><clipPath><path d="M317.3 266.3h5.5V239h-5.5v27.3z"/></clipPath><clipPath><path d="M300 238h12v-6.4h-12v6.3z"/></clipPath><clipPath><path d="M286.4 160.2h37v-13.7h-37v13.7z"/></clipPath><clipPath><path d="M254.4 262h5.4v-27h-5.4v27z"/></clipPath><clipPath><path d="M342.8 145.2h27.6v-36.7h-27.6v36.7z"/></clipPath><clipPath><path d="M312.7 142.8h50v-34.4h-50v34.4z"/></clipPath><clipPath><path d="M375.8 141.4h29v-30h-29v30z"/></clipPath><clipPath><path d="M334.3 96.6h66.4v-21h-66.4v21z"/></clipPath><clipPath><path d="M341 136.8H396v-9.6H341v9.6z"/></clipPath><clipPath><path d="M338.8 132h55.7v-10.2h-55.7v10z"/></clipPath><clipPath><path d="M332.7 131.6h71.8v-56h-71.8v56z"/></clipPath><clipPath><path d="M310 152.7h40.5v-18H310v18z"/></clipPath><clipPath><path d="M322 181.5h41.7v-49.7H322v49.7z"/></clipPath><clipPath><path d="M332.5 77.7h72.7V72h-72.7v5.7z"/></clipPath><clipPath><path d="M370 172.4h49v-42h-49v42z"/></clipPath><clipPath><path d="M365 191.3h23.3v-59.6H365v59.6z"/></clipPath><linearGradient id="w" x2="1" gradientUnits="userSpaceOnUse" gradientTransform="matrix(0.2464361,-38.233295,-38.233295,-0.2464361,96.328087,201.77255)"><stop offset="0" stop-color="#3992b3"/><stop offset="1" stop-color="#3992b3"/></linearGradient><linearGradient id="v" x2="1" gradientUnits="userSpaceOnUse" gradientTransform="matrix(-1.2553018,-167.57259,-167.57259,1.2553018,3928.7538,3144.2334)"><stop offset="0" stop-color="#77bed6"/><stop offset="1" stop-color="#b4e6ed"/></linearGradient><clipPath><path d="M0 737h595.3V0H0v737z"/></clipPath><clipPath id="x"><path d="M344.8 85h40V37h-40v48z"/></clipPath><clipPath id="y"><path d="M349.6 79.4h4v-4.2h-4v4.2z"/></clipPath><clipPath id="z"><path d="M348 98h14v-.8h-14v.8z"/></clipPath><clipPath id="A"><path d="M291 76.5h2.3V74H291v2.5z"/></clipPath><clipPath id="B"><path d="M322.4 77h2.3v-2.8h-2.3V77z"/></clipPath></defs><path fill="#0093b1" d="M0 500h1000V0H0v500z"/><path fill="#fff" d="M0 400.4h1000v10H0z"/><path fill="#b395dd" d="M0 500h1000v-89.7H0V500z"/><path fill="#fff" d="M867 375h-43v20h43v-20z"/><path fill="#e3f5ff" d="M826.2 377.3h38.4v15.5h-38.4v-15.5z"/><path fill="#bccbd4" d="M838.2 385c0 3-2.4 5.4-5.3 5.4-3 0-5.5-2.4-5.5-5.4 0-3 2.4-5.3 5.4-5.3 2.8 0 5.2 2.4 5.2 5.3"/><path fill="#859096" d="M833.8 382.4c0 .5-.4 1-1 1-.4 0-.8-.5-.8-1s.4-1 1-1c.4 0 .8.5.8 1M833.8 387.8c0 .5-.4 1-1 1-.4 0-.8-.5-.8-1s.4-1 1-1c.4 0 .8.5.8 1"/><path fill="#bccbd4" d="M850.7 385c0 3-2.4 5.4-5.3 5.4-3 0-5.4-2.4-5.4-5.4 0-3 2.4-5.3 5.4-5.3 3 0 5.3 2.4 5.3 5.3"/><path fill="#859096" d="M846.3 382.4c0 .5-.4 1-1 1-.4 0-.8-.5-.8-1s.4-1 1-1c.4 0 .8.5.8 1M846.3 387.8c0 .5-.4 1-1 1-.4 0-.8-.5-.8-1s.4-1 1-1c.4 0 .8.5.8 1"/><path fill="#bccbd4" d="M863.2 385c0 3-2.4 5.4-5.3 5.4-3 0-5.5-2.4-5.5-5.4 0-3 2.4-5.3 5.4-5.3 2.8 0 5.2 2.4 5.2 5.3"/><path fill="#859096" d="M858.8 382.4c0 .5-.4 1-1 1-.4 0-.8-.5-.8-1s.4-1 1-1c.4 0 .8.5.8 1M858.8 387.8c0 .5-.4 1-1 1-.4 0-.8-.5-.8-1s.4-1 1-1c.4 0 .8.5.8 1"/><path fill="#4d4d4d" d="M863.2 385c0 3-2.4 5.4-5.3 5.4-3 0-5.5-2.4-5.5-5.4 0-3 2.4-5.3 5.4-5.3 2.8 0 5.2 2.4 5.2 5.3"/><path fill="#666" d="M858 389c-1 0-1.7-.6-1.7-1.5v-5c0-1 .7-1.6 1.6-1.6.8 0 1.5.6 1.5 1.5v5c0 1-.7 1.6-1.6 1.6"/><path fill="#666" d="M879.3 386.6H858v-3h21.3v3z"/><path fill="#f2f2f2" d="M876.2 310h99v103.5c0 1.3-1 2.3-2.3 2.3h-94.4c-1.3 0-2.4-1-2.4-2.3V310z"/><path fill="#4d4d4d" d="M876.2 357.5h99v2h-16v3.4c0 .7-.7 1.3-1.5 1.3h-19.2c-1.4 0-2.6-.6-3.5-1.6l-2.5-3.2h-56.3v-2zM876.2 379h99v2h-16v3.5c0 .8-.7 1.5-1.5 1.5h-19.2c-1.4 0-2.6-.7-3.5-1.7l-2.5-3.2h-56.3v-2zM876.2 396.3h99v2h-16v3.4c0 .8-.7 1.4-1.5 1.4h-19.2c-1.4 0-2.6-.5-3.5-1.6l-2.5-3.2h-56.3v-2z"/><path fill="#fff" d="M876.2 291.6V310h23v-16c0-1.5 1-2.5 2.3-2.5h63.2c1.3 0 2.3-1.2 2.2-2.5l-.4-2.5-1-9c0-1-1-2-2-2H880c-1.2 0-2.2 1-2.4 2.3l-1.4 13.5v.3"/><path fill="#ccc" d="M895.5 290.4V308c0 1 1 2 2 2h1.6v-16c0-1.5 1.2-2.5 2.5-2.5h63.2c1.3 0 2.3-1.2 2.2-2.5l-.4-2.5h-67.2c-2 0-4 1.8-4 4"/><path fill="#fff" d="M899 308h74.2c1 0 2 1 2 2h-76v-2z"/><path fill="#4d4d4d" d="M964.7 291.5v5l1.7.6c1.8.8 3 2.6 3 4.5v2.4c2 0 3.8 1.6 3.8 3.7v.2H899v-16.5h65.7z"/><path fill="#ccc" d="M885.3 271h74.3c1.3 0 2.3 1 2.3 2.2v2.4h-79v-2.4c0-1.3 1-2.3 2.3-2.3"/><path fill="#333" d="M893.8 259.3l31.7 7.8.7-4-32-6-.4 2.3z"/><path fill="#ccc" d="M932 262h14.4c5.6 0 10.8 3.4 13 8.6l.2.3H908v-.2c6.8-5.6 15.2-8.7 24-8.7"/><path fill="#5d8cab" d="M906.5 285.6h39c.7 0 1.4-.7 1.4-1.5v-5c0-1-.8-1.6-1.6-1.6h-39c-.8 0-1.5.7-1.5 1.5v5c0 1 .6 1.6 1.5 1.6"/><path fill="#333" d="M889.4 417c2.8 0 5 2.2 5 5v.3h-10v-.4c0-2.8 2.2-5 5-5"/><path fill="#333" d="M887.7 415.7h3.4v2.7h-3.3v-2.7z"/><path fill="#4d4d4d" d="M885.4 422c0 2.2 1.8 4 4 4s4-1.8 4-4-1.8-4-4-4-4 1.8-4 4"/><path fill="#333" d="M967 417.2h.2c2.7 0 5 2.2 5 5v.3h-10v-.4c0-2.6 2.2-4.8 5-4.8"/><path fill="#333" d="M965.4 415.8h3.4v2.8h-3.4v-2.8z"/><path fill="#4d4d4d" d="M963.2 422.2c0 2.2 1.7 4 4 4 2 0 4-1.8 4-4s-2-4-4-4c-2.3 0-4 1.8-4 4"/><path fill-opacity=".2" d="M157 235.4H35l-4.8-5.6L35 54l117.3-5.4L157 54v181.4z"/><path fill="#fff" d="M152.3 229.8h-122V48.6h122v181.2z"/><path fill="#cbc8d5" d="M145.4 221.4H37V57h108.4v164.4z"/><path fill="url(#v)" d="M3869 2956.8h118v185.7h-118v-185.7z" transform="matrix(1.25,0,0,-1.25,-5104.2227,4486.1113) matrix(0.67665909,0,0,0.67665909,1498.4426,1413.9881)"/><path fill="url(#w)" d="M155.4 207.7h-2.2v-1h-1v2.6h-1.7v8h-1.2v-8H148v-2.5h-.7v-4.4H146V191h-.5v15.8H144v17l-1.2 1v4.6h-6v-.7l-1.7 1.3v-13l-6.4 3.8v-14h-1v16h-1v1.4h.8l-3 2.7v-1.3H123v1.7h-1.2v1.2h-1.3v1h-1v16h-1v-16h-1v-1h-.8v-1.2h-.7v-1.7h-1.7v-1.3h-1.7V223H111v-6.5h-2v4.7c.3 0 .4.2.4.4s-.2.3-.4.3-.4-.2-.4-.4 0-.3.2-.4v-4.7h-3.6v-.8h2.7v-.7h-2.2v-12H104v2.6h-.7l-1.5 1.4v4.3-4.3l-1.5-1.3h-.7V203h-2v-.8H96V200h-2v1.3h-.4v1.4H93v-.4H93v-1h-.3v1.6h-.5v-1.6h-.4v.6h-.5v-.6H91v-1.5h-1v3h.6v1.5H90v1h.6v1.3H90v1h.6v1.3H90v2.4h.6v1.3H90v1.2h-1v8h-1.6v1.6H86v.7h.5l-3 2.7v-2.5h-1v-1h-2v4.8h-1v7.3H79v-7.3h-.7V225h-1.8v-1.4H75V222h-1v-6.5h-4v1h-1.3v3.8c.2 0 .3.2.3.4s-.2.3-.4.3-.4 0-.4-.3c0-.2 0-.3.3-.4v-3.8H68v-1h-1v-.5h-1v-1.4h1v-7.2h-1.3V203H64v5.5h1.2v1H64v1h-1v1h-.5v1.2h-.7v-1h-.2v2h-.2v.6H61v1.4h-.5v-1.4h-.2v-.7H60v-2H60v-1.2h-1v1.7h-.5l-1.7 1.6V212h-.8v5.6c.2 0 .3 0 .3.3 0 0 0 .3-.3.3-.2 0-.4-.2-.4-.4 0-.3 0-.4.3-.4V212h-1v-1.6h-1v-.8H53v-1h.7V199H51v7h1.3v3.4h-.6v2.4H51v7.3h1.3v2H51v5h-1.7v1h-1v17h-.6v-17H47l-8 7v-7h-1v-1h-.5v-68h118v49.4z" transform="matrix(1.25,0,0,-1.25,-5104.2227,4486.1113) matrix(0.67665909,0,0,0.67665909,1498.4426,1413.9881) translate(3831.5111,2798.5563)"/><path fill="#fff" fill-opacity=".2" d="M41.4 133.6V150l99.8-82.4v-7h-11.5l-88.3 73zM41.4 162l99.8-82.3v-7.2L41.4 155v7z"/><path fill="#fff" d="M145.4 115.5H37v-12h108.4v12z"/><path fill="#cbc8d5" d="M145.4 106.8H37v-3.4h108.4v3.4z"/><path fill="#1b0d0c" fill-rule="evenodd" d="M766 163c-8.7 0-15.8 7-15.8 15.7s7 15.8 15.8 15.8c8.6 0 15.7-7 15.7-15.8 0-8.7-7-15.7-15.7-15.7"/><path fill="#1b0d0c" fill-rule="evenodd" d="M733 184.7s-9.4-3.5-9.7-23.7c-.2-22.6 19.6-25.3 25-25.3 3.4 0 15 .3 22 9.2 6.7 8.8 6.5 25 .2 34.8-6.4 10-16.4 11-19 10.8-2.6-.2-18.6-6-18.6-6"/><path fill="#f6b87e" fill-rule="evenodd" d="M745 193.7l.6 4.6c.2 3 .2 6.2-.5 7.8-1.3 3.4-6.4 8.3-7 11.8-.8 3.5 26.5-18 26.5-18-4.7-13.5 0-15.6 1-29-.4-9.2-.6-7.7-1.6-1.2-1 6.2-18.6 19.3-19 24"/><path fill="#c38155" fill-rule="evenodd" d="M745.6 198c11.8-.6 17-15.8 19-24.8.5-1.7 0-2.8-.8-3.3-1.5 6.2-18.4 19-18.7 23.7l.6 4.4"/><path fill="#f6b87e" fill-rule="evenodd" d="M730 149.8c-1.3 6.6-2.2 13-2.2 13s-.5 3.2 1 4.6c1.3 1.4-2.2 6.8.6 12.6 1.6 3.2 4 6.8 6.4 9.6 1.8 2.3 3 3.4 4.6 4 1.6.7 4 .4 6.2-.4 5-2 10.5-6.7 12.7-9.7 2-2.6 3.3-4.6 4.3-8 .6-2 1-3.8 1.3-5.8.6-4 1-7.5 1.5-7.8-.7-3.4-2-7.8-4.7-11.7-3-4.4-6.6-8.4-13.8-9.2-6.6-.7-16.8 1.3-18 8.8"/><path fill="#c38155" fill-rule="evenodd" d="M743.3 152.8c-6 7.5-9.5 10.3-13 11.3 7.8-.6 13-11.2 13-11.2m2.7-2.5c-1.5 3-7.6 16-18.2 15-.2-1.4 0-2.6 0-2.6l1.7-10.8c3-6 8.4-9.6 17.6-9.6 6.8 1.2 11 3.4 13.4 6 .5.5 1 1.2 1.4 2l1.4 2c1.4 3.8.7 7.4.4 9-4-2-13-2.6-17.6-11"/><path fill="#1b0d0c" fill-rule="evenodd" d="M745.6 145s-7.8 14-18.3 18.6c-1-7.4 1-17.7 6.6-20.8 5.5-3.2 14.7-3 14.7-3s11.5-.8 17.5 12.6c3.3 7 3.3 13.4 2.6 17.8-.6 4 1 14.7-6.4 19-.2-6.6 1.4-14.2 2.5-21 .3-2.4-.7-4.5-1.4-6.7-5.5-3.8-13.6-6.6-18-16.4"/><path fill="#f6b87e" fill-rule="evenodd" d="M763.2 162.2s.7-2.6 3.7-2.4c3 0 3.5 7.5 1.2 10.3-2.3 3-4.3.3-4.3.3l-.8-8z"/><path fill="#1b0d0c" fill-rule="evenodd" d="M745.4 143.7s-6 12.4-11 16.7c-5 4.4-7.3 3-7.3 3l-.6.3s1.2 1.6 5.4-.3c4-2 8.6-6.8 14.3-18.2.7-1-.6-1.5-.6-1.5"/><path fill="#c38155" fill-rule="evenodd" d="M760.4 372l-36.5 5s10 37 18 50.6c2.6 4.4 4.8 9.7 6.8 15.5 5 15.4 10.2 39.2 12.2 57h12c0-4 .2-8.3.3-11.5.8-22.8 4.4-33.6-7-61.7-2.7-22 .3-31.4-6-54.8z"/><path fill="#613624" fill-rule="evenodd" d="M773.8 479.4c-4-16.6-8.7-41.3-11.6-49.2-3.5-9.7-12.8-23.6-18.5-55.8l16.7-2.4s7.4 34.5 5.7 38.6c-1.6 4 .3 16.2.3 16.2 9.8 24 8.5 35.4 7.5 52.6"/><path fill="#613624" fill-rule="evenodd" d="M760 423c-3.7-6.5-19.3-9.4-23.6-7.7-1.5-3.7-3-7.7-4.3-11.7l34-1 .4 5.4-6.4 15z"/><path fill="#f6b87e" fill-rule="evenodd" d="M754.3 358c-5.6 0-9 3.6-7 14.5 5.6 33.2 16.3 47.7 20 57.4 2 5.4 5 18 8 30.7 2.2 9.2 7 24.8 10.8 39.3h14c0-1 0-2 .2-3.2 2.3-25.7 4-43-8-67.3-7-15-4.8-29.8-5.4-35-.7-5.4-1.3-21-1.3-21s-20-15.5-31.2-15.5z"/><path fill="#c38155" fill-rule="evenodd" d="M787 409.3c-3 2.6-7 4.3-15 5.8-7 1.4-9 2.3-10 3.5-2.3-4.5-4.8-10-7.2-16.7-.7-10 19.6-14.6 31.3-16.3.3 3.5.5 7 .8 9 .3 2.7-.2 8 .3 14.8"/><path fill="#1d222f" fill-rule="evenodd" d="M786.3 333.3c.6 2 1.7 10.2.3 19.7-.2 17 1 36.2 1.6 53.2-16.5 11-48.3 8-57.6 3C723 388 718 364 718.2 344c0-2.7 0-5.3.2-7.7.6-12.8 68-3 68-3"/><path fill="#f6b87e" fill-rule="evenodd" d="M681 222s-2.3-3-5.4-3.2c-3-.4-5.5.5-7.8-.2-2.2-.6-4-.3-5.7 0-1.3.3-1 1.3 1.5 2 1 .3 4.4.6 6.2.6 5.3 0 11.4.7 11.4.7"/><path fill="#c38155" fill-rule="evenodd" d="M681 222s-2.3-3-5.4-3.2c-3-.4-5.5.5-7.8-.2-2.2-.6-4-.3-5.7 0-1.3.3-1 1.3 1.5 2 1 .3 4.4.6 6.2.6 5.3 0 11.4.7 11.4.7"/><path fill="#f6b87e" fill-rule="evenodd" d="M683.6 225.5s-1.7-4.4-4.7-5c-3-.6-6-.3-9.8.6-4 1-7 .8-8 .4-1.4-.3-4-2.4-6-3.5-2.2-1.2-5-1-6-.6l5 4.7c1.5 1.7 3.7 3.6 5.7 4 2 .5 9.7.7 12.4 1 2.7.3 4 2.6 4.6 3.3.6.6 6.6-4.8 6.6-4.8"/><path fill="#c38155" fill-rule="evenodd" d="M679 220.5c-3-.6-6-.3-9.8.6-4 1-7 .8-8 .4-1.4-.3-4-2.4-6-3.5-2.2-1.2-5-1-6-.6 0 0 3.8.4 5.4 2 1.6 1.6 3.8 3.3 6 3.4 10 .5 9-2.5 18.3-2.3"/><path fill="#c7e2f6" fill-rule="evenodd" d="M687.3 228.4l-2.8-4.3c-4.6 0-8 3.5-8.7 7l3 5.6 8.5-8.2z"/><path fill="#8dafd4" fill-rule="evenodd" d="M687 228c-.2-.2-1.3-.7-3.4.2-2.2 1-4.8 3.2-5.4 7l.7 1.4 8.3-8.2-.2-.4z"/><path fill="#c7e2f6" fill-rule="evenodd" d="M729 211.2c-1 .3-9.3 5-11.4 15.6-2.2 10.6-10.3 27.7-10.3 27.7s-13.6-21.5-17.2-25c-3.5-3.8-7.8 0-9 1.3-1.3 1.3-4 3.7-3.3 11 1 7 17 30.8 26.2 31.4 9 .7 19.7-13.8 19.7-13.8l5.4-48.2z"/><path fill="#8dafd4" fill-rule="evenodd" d="M712 262.5c1.2 5.5-4.2 7.6-8 10.7 6 .5 19.7-13.8 19.7-13.8l3-26.8-12.3 4.8c-2 5.4-4.2 10.7-5.6 14 .4 3 1.8 7.3 3 11"/><path fill="#1d222f" fill-rule="evenodd" d="M739.3 206l-11 5.2s-10.3 15.2-15.6 21.3c-5.4 6.2-1.7 18.4 2 24 3.5 5.4 6.5 27.4 4.6 41.2-2 14-2.4 41-2.4 41 22.6 4.3 45.4 5.5 71-.7 0 0-.2-22.4-12.3-31.8-12.2-9.3-14-26.8-11.7-35.3 2.3-8.6 26.8-37.2 29-46 2-8.6-8.8-15-14.5-17-5.8-2-11.5-4.2-11.5-4.2l-27.7 2.3z"/><path fill="#0e1522" fill-rule="evenodd" d="M774 220.5s-5.2 3-7.8 13.2c-2.5 10.3-10.5 14-18.3 13.4-8-.5-21-9.4-21-9.4s-8.5 8.7-15.3 12.8c.8 2.3 1.8 4.4 3 6 3.5 5.5 6.5 27.5 4.6 41.3-.4 2.7-.7 6-1 9.3 7 2.8 17.5 7.2 30.5 18 3.8-4.4 6.5-8 10.3-12.2 2.7 1 9 1 18.7-4.8l-2-1.8c-12.2-9.3-14-26.8-11.7-35.3 1.6-6 14.2-22 22.3-34-2.4-6.2-6.3-12.2-12.4-16.5"/><path fill="#0e1522" fill-rule="evenodd" d="M725.4 238c-.8 0-1.5.6-1.5 1.5 0 .8.6 1.4 1.4 1.4 1 0 1.5-.7 1.5-1.5 0-1-.7-1.5-1.6-1.5M731 231.2c-1 0-1.6.6-1.6 1.4 0 1 .6 1.5 1.5 1.5.7 0 1.3-.5 1.3-1.4 0-.8-.6-1.4-1.4-1.4"/><path fill="#5f686e" fill-rule="evenodd" d="M725.6 237.6c-.8 0-1.4.6-1.4 1.4 0 1 .6 1.5 1.4 1.5 1 0 1.5-.6 1.5-1.5 0-.8-.5-1.4-1.4-1.4M731 230.7c-.8 0-1.4.7-1.4 1.5 0 1 .6 1.5 1.5 1.5 1 0 1.6-.6 1.6-1.5 0-.8-.7-1.5-1.5-1.5"/><path fill="#0e1522" fill-rule="evenodd" d="M731.5 227.4L730 229c-6 5.8-10.6 10.3-8.6 19.6 1.5 7 2.7 15.5 3.4 24 .6 8.3.8 16.5.4 23.4-.4 6.6-.4 14.8-.2 22.7.3 9 .8 17.3 1.5 22.7h.8c-.6-5.5-1.2-14-1.4-22.7-.4-8-.3-16 0-22.7.5-7 .3-15-.4-23.4-.7-8.6-2-17.2-3.4-24.2-2-8.8 2.6-13.2 8.3-19l1.8-1.6-.8-.4z"/><path fill="#0e1522" fill-rule="evenodd" d="M745.6 296.8s-.7.3-2 .2c-1-.2-2.7-1-4.7-1.8-2-.7-2.8-.4-4.6-1.6-2.4-1.7-4-1-7.6-3.5-1 .5-1 3 1 4.5 1.7 1.4 3 2 3 2s3 2 2.3 2.7l-4 4.5c-2.5 2.4-7 3.8-8.5 4.2-.3.8-.3 2 1 2.5 1.3.4 3.3 0 4.6-.6 1.3-.8 5.4-2.8 5.4-2.8l-4.6 3.6c-1.2.8-1 2-.3 2.2 1 .5 2.6.3 4.4-1l2-1.2c-.6 1-1.2 1.7-1.5 2-.6.6-1.6 3.3.8 3 2.4-.6 3.3-2 3.8-2s-.8 1.4-1.3 2c-.5.8.6 3 3.8 1 3.2-2 4-2.7 6-4.6 1.8-1.8 5-5.3 7.4-6.6 2.2-1.4-6.4-8.8-6.4-8.8"/><path fill="#8c959a" fill-rule="evenodd" d="M749.4 321l-54.2-45 38.8-47.5 53 44.2-37.6 48.4z"/><path fill="#c7e2f6" fill-rule="evenodd" d="M773.5 205l6.4 3.6c-16 5.8-20.6 15.7-32.5 19-1.4.6-3 .8-4.3 1-4 .4-7.4.2-9.7-.4-5.3-1.6-8-6-6.6-9.7 1.3-3.7 5-9 5-9l5.5-2.6 9.4-1.6 26.5-.3z"/><path fill="#8dafd4" fill-rule="evenodd" d="M773.8 205.3s-1.2 2.5-4.7 5.5c-3.3 3-8.7 6-17 9.3-1.5-3.5-3.7-5.4-5-6-1.5-.8-4-2.4-6.8-3.7-2.7 0-4.2.2-7 1.2 1-1.6 2-3 3-4l10.3-2.2h27.3z"/><path fill="#5f686e" fill-rule="evenodd" d="M775 262.6c2.3 3.6 6 8.7 7.2 10 0 0-6.4 8.7-21.5 16.4-7.3 3.8-2 7.7 5.3 10.7l21-27-12-10z"/><path fill="#8dafd4" fill-rule="evenodd" d="M752 214.4l-9.5 3.5-.7 10.7c-3.3.3-6.3 0-8.3-.5-2.2-.7-4-2-5.2-3.3 3.6-3 7.3-6.7 10-9l1.2-8.7 8-2 4 6.6.4 2.4z"/><path fill="#5889b4" fill-rule="evenodd" d="M750.5 213.7l-8.8 4-.6 11c-5.6.4-10-.5-13-4 3.3-3.2 7.6-6.3 10.4-8.8l1.7-9 6.6-2 4.3 6.7-.5 2z"/><path fill="#c38155" fill-rule="evenodd" d="M763.4 196.2s-8.3 6.6-16.2 7.6c0 0-1-2.2-1.6-4.4l-.7 1.6 1.5 4.5 10.7-2 6.3-5.7v-1.6z"/><path fill="#5f686e" fill-rule="evenodd" d="M747 295c-1.2-.4-2.4-1.7-4.2-3-1.7-1.2-2.5-1-4-2.7-1.8-2.3-4.2-3.2-7-6.5-.7 1-1 3.7.4 5.6 1.4 1.8 2.4 2.6 2.4 2.6s2.5 2.8 1.6 3.3l-5.3 3.2c-2.3 1.3-5.6 1.7-7.7 1.8l4 3.3 5-1-4.2 1.8 3.3 2.6 1.6-.5c-.5.4-1 .7-1.2 1l7 5.7c2-.7 3-1.2 4.7-2.3 2-1 5-3 7.3-4l.7 1 5.2-1c1 .7 2 1.3 3 1.6l23.6-30.2c-14.7 12.2-28.7 11.2-31 14.2 0 .3-.3.7-.4 1l-5.2 1.5v1"/><path fill="#305881" fill-rule="evenodd" d="M750.6 213.7l-2.4 1s.5-2.5-2.8-4.5-5-1.2-6 0l.7-3.4 6.6-2 4.4 7.2-.4 1.7z"/><path fill="#f6b87e" fill-rule="evenodd" d="M748.7 294s-.7 0-2-.3c-1-.5-2.2-1.8-4-3-1.8-1.3-3-1.8-4.8-4-1.8-.8-3.4-1.7-6.3-5-1.3 3 1 6.5 2.8 8 0 0 3.3 3 2.3 3.7-4 2.2-8 4.2-15.2 4.6-.6.7-1 2 .2 2.7 1 .8 3.3 1 4.6.6l5.8-1s-3.4 1.5-5.3 2c-1.5.6-1.4 1.7-1 2.2.4.7 2 1 4 .4l2.8-1c-1 1-1.6 1.4-2 1.6-1 .8-1.4 1.7-1 2.5 1 1.5 4.2.2 5.3 0-.5.6-1.2 1-2 1.5-.6.5 0 3 3.5 2 5-1.7 8.8-3.7 12-5.7 1.4-1 2.8-1.4 4-1.6 2.5-.7-3.8-10.2-3.8-10.2"/><path fill="#c7e2f6" fill-rule="evenodd" d="M747 204.2s9-1 16.4-8c4.8 2.3 8.5 6.4 10.6 9-4.5 4.8-9.4 9-21.3 13.8-2-4.8-3.8-10-6.6-13-5.2 1-7.7 2.7-12.5 5.3 2.7-4 4-6 8.8-9.6 2.2-1.8 3.3-2.4 3.3-2.4 0 1.7.8 3.4 1.3 5"/><path fill="#0e1522" fill-rule="evenodd" d="M728.7 320c-.8 0-1.5.6-1.5 1.4 0 .8.7 1.5 1.5 1.5s1.5-.8 1.5-1.6-.7-1.5-1.5-1.5M728.3 310c-.8 0-1.5.8-1.5 1.6s.7 1.5 1.5 1.5 1.5-.6 1.5-1.4c0-.8-.7-1.5-1.5-1.5"/><path fill="#3f464d" fill-rule="evenodd" d="M729 319.6c-.8 0-1.5.6-1.5 1.5 0 1 .7 1.6 1.5 1.6 1 0 1.5-.7 1.5-1.5s-.6-1.4-1.5-1.4"/><path fill="#2b3037" fill-rule="evenodd" d="M728.6 309.8c-.8 0-1.5.6-1.5 1.5 0 .8.8 1.5 1.6 1.5s1.5-.7 1.5-1.5c0-1-.6-1.5-1.4-1.5"/><path fill="#c7e2f6" fill-rule="evenodd" d="M751.3 305.6c-2.4-1.2-5.5-8.6-4.6-13 2.4-.4 6.4-1.6 6.4-1.6l4.2 13.4-6 1.2z"/><path fill="#8dafd4" fill-rule="evenodd" d="M751.6 291.4c-.4.7-1 2.6.3 6.6 1 3.3 3 5.5 4.2 6.6l1-.2-4-13.4-1.6.4"/><path fill="#c7e2f6" fill-rule="evenodd" d="M769.7 240.6s-3-11.7 2.2-18.3c5-6.6 14.8-6.8 18-5 3 2 6.6 20 8.7 26.7 2 6.6 7.4 18 9.6 25.4 2 7.2 5 14-9.2 24.5-14.2 10.3-34 13.7-39.5 12.2s-9.6-12.7-7.2-16c2.3-3 18-2 33.8-16.8-12.7-17-16.3-32.8-16.3-32.8"/><path fill="#0e1522" fill-rule="evenodd" d="M787 338.2c-8 1.8-15.4 3-23.6 3.7-10.7.6-24.5.5-40.4-2l-4.7-1v1.2c34.6 6.6 60.2 1.2 67-.5l1.8-.5v-1z"/><path fill="#5f686e" fill-rule="evenodd" d="M728.8 319.4c-.8 0-1.5.7-1.5 1.5 0 .7.7 1.4 1.5 1.4 1 0 1.5-.7 1.5-1.5 0-1-.6-1.6-1.5-1.6"/><g><path fill="#3f464d" fill-rule="evenodd" d="M728.4 309.6c-.8 0-1.5.7-1.5 1.5 0 1 .6 1.6 1.4 1.6.8 0 1.5-.7 1.5-1.5 0-.7-.8-1.4-1.6-1.4"/></g><g><path fill="#c38155" fill-rule="evenodd" d="M768.5 163s-.3-2-1.7-2c-1.3 0-2.5 1-1.5 3.2 1 2-.4 3-.3 4.4.3-.6.7-1 1.2-1.7.5-.6 1-2 0-3-.8-1.2-.4-2.3.3-2.5.7 0 1.4.3 2 1.4"/></g><g><path fill="#472626" fill-rule="evenodd" d="M753.3 137.6c2.2 1.8.2 2-1.6 2.2-1.8.2.3 1 2.4 2.5.6.3.5.6-.3.6l-2.6-.6c-2.4-.6-.2 1 .7 1.5.4 0-.5.3.8 1 1 .4 0 .7-.2.7-2-.4-3.7-.3-1 1.2 4 2-3-.5-1.2 2 1.8 2.4-2.3 0 2.7 4.3 1.5 1.3 2.8 2.2 3.8 2.8 2.6 1.6 4.3 1.7 3 0-1-1.3-2-1.4-1.5-1.8 1-.8-2.2-2.6-.5-2 2.3.6 3.5.7 3.2 0-.3-.8-2.3-1.8-.8-2 1.3-.3 0-1.6-1.8-2.5-1.8-1-1.2-1.6 2-.7 2.2.7 1.7-.4.7-1.3l-2-1c-1-.8 1.8-.4 1.7-.8 0-.4-1.2-1-1.5-1.4-.4-.4 0-.7.4-.6 1.7.6 2-.7 0-1.4s3-.7 1-1.8c-2.4-1.2-1.4-1-3.8-1.7-2-.5-6-1.4-3.5.6"/></g><g><path fill="#305881" fill-rule="evenodd" d="M741 228.4c-3 .2-11 0-12.3-4.4l-.6.6c3 3.6 7.4 4.5 13 4v-.2z"/></g><g><path fill="#305881" fill-rule="evenodd" d="M741.7 217.7c-.4-1-1.2-1.8-3.2-1.8 0 0 1 .4 1 .6.3.3-1.2 2-1.3 2.2-.2.2-.4.6.5-.2l1.3-1.2c.2-.2.4-.4.5-.3.2 0 .6.2 1.2.7"/></g><path fill="#37353f" d="M238.4 404s2 66.4 1.8 81.2l.7 14.8H268c.5-8.3.7-18.3-.5-28 0 0-3-11.5 0-23.2 0 0 1.2-11.7 1.3-24.6l1.6-17.5c.3 6.3 1 12 1.7 16 0 0 4 23.4 4.5 29.4 0 0 .2 3.3 0 6.7 0 0-.3 11.3 1.3 14.6 0 0-2 16-1.8 26.7H305c.5-17.5 1.2-32.6 2-34.2 0 0-.3-6-1.5-14.2 0 0 2.3-79.7.3-99.8l-1.2.3c.3-6.6-1.4-11-2.6-23.6l-66.3.7c-2 14.4-.2 27.2 0 40.5l2.7 34.5"/><path fill="#27242b" d="M238.4 404s2 66.4 1.8 81.2l.7 14.8h3c-.7-19.8-.6-38 1.6-43.6 5.4-14 2-57.4 2-57.4-1-8.5 3.4-29 3.4-29 18.2-.2 44.5-9.3 55.2-13.2 0-2-.3-3.6-.4-5l-1.2.3c.3-6.6-1.4-11-2.5-23.6l-61.5.6-5 2c-1.6 13.5 0 25.8.2 38.5l2.7 34.5"/><path fill="#4f4c4d" d="M307 268.4l-3.5 40 7 44.8s-22.2 5.2-25.8 4.5c0 0-5.2-3.3-6.3-6.3 0 0-2-13.4-3.6-20.5 0 0-2 14-3.7 22 0 0-2.4 7.7-6.5 8 0 0-24.3.8-33.5-4 0 0 1.6-27.5 5.5-47.5 0 0-1.5-6.8.4-8.3 0 0-4.2-1 0-6.5l-2.2-1s.4-3.7 1.3-8c0 0-4.3-23.5-6-27.5-9.2-21-8.4-38.8-8.4-38.8s27.2-9.3 36.6-14l25.2-.8s23 10 27 11c0 0 5.2 2 8 3.6 0 0-8.2 39-11.5 49.2"/><path fill="#4f4c4d" d="M259 361c-15.5-12.8-14.7-37-14.7-43.2 0-6.7 3-16 2-24.3-.8-8.2-13-22-13-22 1.5 7 2.8 14.2 2.8 14.2-.8 4.3-1.2 8-1.2 8l2 1c-4 5.6 0 6.5 0 6.5-1.8 1.5-.3 8.3-.3 8.3-4 20-5.5 47.5-5.5 47.5 6.4 3.4 20.2 4 28 4"/><path fill="#6a6e75" d="M276.6 285s18-29.4 20.4-35.4c0 0 2.2-31.7-.5-40.2l-9.6-4.8-17.3 53.4 7 27z"/><path fill="#6a6e75" d="M246.4 209.4l2.3 43.2S264 278 279 288.2L265 248.6l-6-46.3s-8.6 3-12.8 7"/><path fill="#e7e5e3" d="M288.7 245.6s2.5-30.2 1.6-38l-7-3-25 .7-4.6 2 4 39.3s11.5 27.4 18.7 34.4l12.3-35.4"/><path fill="#1e252e" d="M269.4 226.7l2.5 5.4s2.7 1 4.5 0l2-6.3-3.2-2.8H271l-1.6 3.7z"/><path fill="#fbfbfb" d="M283.6 235.7s-5.2-10-9.4-12.8V219l9.5-17.7 6.3 4c1.3 3.4 0 21 0 21-2.6 4.5-4.3 7.7-6.4 9.2M264.7 235.7s5.2-10 9.5-12.8V219l-12.4-18.6-4 1c-2.2 2.5-2.5 3-4 5.6l1.3 13c2.6 4.8 7.6 14 9.7 15.5"/><path fill="#e28d58" d="M284 208c-.7-6-.4-24.5-.4-24.5L271 183l-12.4.5s.6 18.4 0 24.6c0 0 11.4 13 15.6 15 0 0 6.7-10 9.7-15"/><path fill="#a9583a" d="M283.6 185.4v-.4l-25 .5.2 9c3.7 3.8 10.7 11.6 18.4 10.6 0 0 3.8.5 6.5-1.3-.2-6-.2-14.5 0-18.3"/><path fill="#c0662b" d="M252 168s-3.4-1.3-2.2 4.5c0 0 1.8 7 5.5 5L252 168z"/><path fill="#de8852" d="M289.3 170.6s1.6-6.4 4.4-5c0 0 2.5 1.3 0 8 0 0-3.3 7.6-6 5.2 0 0 0-7.5 1.6-8.2"/><path fill="#f59e62" d="M289.2 155c-2.8-11.4-12.7-13.3-17.8-13.5-5 .2-15 2-17.8 13.5-1 4.2-1.4 12.7-1.2 18.4 0 0 .5 6.8 3 13.8 0 0 4 9.5 11.2 13 0 0 2 .7 4.5.6 2.4 0 4.4-.7 4.4-.7 7.2-3.3 10.7-11 10.7-11 2.6-7 3.8-15.6 3.8-15.6.2-5.7.5-14.2-.6-18.4"/><path fill="#1e252e" d="M272.4 229.7s-3.8 29.5-3.5 32l1 10.2s4.6 8 6.4 9l3-9v-10.3s-2.2-29.2-3.7-32.7l-3.3.7z"/><path fill="#4d2620" d="M286 141.5c4 3 5.5 11.2 5.5 11.2.7 8-1.6 18-1.6 18 0-3-2.3-10.3-2.3-10.3-1.3-3.6-3-11-3-11-11.2 3.5-18 1-18 1-5.6-2-10.2 1-10.2 1-.6 1.2-1 6-1 6 0 4.4-1.8 8-1.8 8-1 3-1.3 5.4-1.3 5.4-2-7-.8-17-.8-17 0-7 2.4-9.5 2.4-9.5 2.2-2.6 3.3-3.4 3.3-3.4s12-12 28.7.5"/><path fill="#27242b" d="M276.8 452s.2 3.3 0 6.7c0 0-.3 11.3 1.3 14.6 0 0-2 16-1.8 26.7h6.5l-.5-5c.5.8 1.2 2.5 2 5h4.6l-4-22.6c3-1.8 9.2 0 9.2 0-1.3-3.3-10.5-8-10.5-8-2-2.8-1-23.5-1-23.5-2.3-21-8.5-60.3-8.5-60.3-1.5 7.2-2.4 18.8-3 27.7.4 3.6.8 6.7 1.3 9.2 0 0 4 23.5 4.5 29.5"/><path fill="#f59e62" d="M302 378.7s-3.8-6-2-13.4c4-8.4 3.7-6.8 5.4-9.3 0 0 3.3-8.2 3.8-10.2l5.2 4s-5 13.2-5.2 17.2c0 0 .2 2-7.3 11.7"/><path fill="#a9583a" d="M300 365.3c4-8.4 3.7-6.8 5.4-9.3 0 0 3.3-8.2 3.8-10.2l5.2 4-1 2.5c-1.6 0-4 .2-5 1 0 0-2 4.2-2 5.7 0 0-4.8 8-4.7 9.8 0 0 0 6.2.2 9.8-.6-1-3.7-6.6-2-13.3"/><path fill="#e7e5e3" d="M303.8 351.7c2.6 6 9 7.5 9 7.5l3.7-11-8.3-5.6-4.4 9z"/><path fill="#4f4c4d" d="M309.6 316.8c-1 7.8-4.3 27-4.3 27 1.5 3.7 13.2 7 13.2 7 2.2-11 10-36.6 10-36.6 4-13 4-20.7 4-20.7-2-29-9-66-9-66s-2-7-4.3-8c-.3-.3-3.6-1.3-3.6-1.3-2.4 2.4-11.8 41.6-11.8 41.6 2 5.2 10.6 35.4 10.6 35.4s-2.6 5.3-4.8 21.6"/><path fill="#f59e62" d="M239 378.7s3.6-6 1.8-13.4c-4-8.4-3.7-6.8-5.4-9.3 0 0-3.3-8.2-3.8-10.2l-5.2 4s5 13.2 5.2 17.2c0 0-.2 2 7.3 11.7"/><path fill="#a9583a" d="M240.8 365.3c-4-8.4-3.7-6.8-5.4-9.3 0 0-3.3-8.2-3.8-10.2l-5.2 4 1 2.5c1.6 0 4 .2 5 1 0 0 2 4.2 2 5.7 0 0 4.8 8 4.7 9.8 0 0 .2 6.2 0 9.8.4-1 3.5-6.6 1.8-13.3"/><path fill="#e7e5e3" d="M237 351.7c-2.6 6-9 7.5-9 7.5l-3.7-11 8.3-5.6 4.3 9z"/><path fill="#4f4c4d" d="M310.2 251.7c-3 5.5-3.6 12.6-3.5 17.2l7.7 26.2s-2.6 5.3-4.8 21.6c-1 7.8-4.3 27-4.3 27 .6 1.3 2.5 2.6 4.7 3.7-2-12 8.4-52.2 8.4-52.2 1-13.4-8.2-43.6-8.2-43.6"/><g><path fill="#8eabbb" d="M242 262s20 7.7 25 5c0 0-.5 6.5-2 8.6-1.5 2-23-13.5-23-13.5"/><path fill="#b2c1ce" d="M246 264.4s19.7 7.7 24.8 5c0 0-.5 6.5-2 8.6-1.5 2-23-13.6-23-13.6"/><path fill="#fff" d="M250 267s20 7.6 25 5c0 0-.5 6.4-2 8.5-1.4 2.2-23-13.5-23-13.5"/><path fill="#a40" d="M248.5 335.6L209.7 316l28.6-56.8 38.8 19.5-28.5 57z"/><path fill-opacity=".2" d="M232.2 271.5L209.7 316l38.8 19.6 11-21.8c-11-9.4-23.5-34.3-27.3-42.3"/></g><path fill="#4f4c4d" d="M231.2 316.8c1 7.8 4.3 27 4.3 27-1.6 3.7-13.2 7-13.2 7-2.3-11-10-36.6-10-36.6-4.2-13-4.2-20.7-4.2-20.7 2.4-29 9.3-66 9.3-66s2-7 4.3-8c.3-.3 3.5-1.3 3.5-1.3 2.6 2.4 12 41.6 12 41.6-2 5.2-10.6 35.4-10.6 35.4s2.6 5.3 4.8 21.6"/><path fill="#4f4c4d" d="M235.5 343.7s-3.2-19-4.3-27c-2.2-16.2-4.8-21.5-4.8-21.5l6.3-21.6c.7-4.2 1.3-9.7 1-15.3 0 0-11.2 9-13.6 41.3 0 0 7.5 14.4 6.5 25.7-.6 8-1 18 0 24.2 3.4-1.4 8-3.5 9-5.8"/><g><path fill="#e3ab43" d="M602 316h-94.3v110.2H602v-110z"/><path fill="#f0bb59" d="M514.6 323H595v96.2h-80.4V323z"/><g fill-opacity=".2" transform="matrix(1.25,0,0,-1.25,-5104.2227,4486.1113) translate(-3.7398691,217.63344) matrix(1.6109823,0,0,1.6109805,3943.4136,2976.1434)" clip-path="url(#x)"><path d="M345.6 84h39v1H345V37h.8v47z"/></g><g fill-opacity=".2" transform="matrix(1.25,0,0,-1.25,-5104.2227,4486.1113) translate(-3.7398691,217.63344) matrix(1.6109823,0,0,1.6109805,3943.4136,2976.1434)" clip-path="url(#y)"><path d="M353.7 77.3c0-1-1-2-2-2-1.2 0-2 1-2 2 0 1.2.8 2 2 2 1 0 2-.8 2-2"/></g><path fill="#ccc" d="M530.7 336.4c0 2.3-2 4.2-4.2 4.2-2.3 0-4.2-2-4.2-4.2 0-2.3 2-4.2 4.2-4.2 2.3 0 4.2 2 4.2 4.2"/><path fill="#f2f2f2" d="M527.4 335c0 1-1 2-2 2-1.3 0-2.2-1-2.2-2 0-1.2 1-2.2 2-2.2 1.3 0 2.2 1 2.2 2"/><path fill="#090" d="M545.3 263.3c.2-.7.4-1.4.4-2 0-.8-.2-1.4-.5-2-.6-1.4-1.4-2.7-2.4-3.8-1.7-2-4-3.3-6-4.7l-11-7.4c1.8 3 2 6.8 1.5 10.4-.4 3.5-1.3 7-1.2 10.5.2 1.5.4 3 1 4.4.4.6.8 1.2 1.4 1.6 1 .5 2.4 0 3.4-.8 1-.7 1.6-1.8 2.4-2.6 1-1 2.2-1.5 3.3-1 .7 0 1.2.6 1.8 1 1.2.6 3 .5 4-.4 1-1 1.5-2 2-3.3"/><path fill="#477323" d="M530.8 250c1.5 1.6 2.3 3.8 3 6 .4-.4 1-.7 1.7-.6-.5.6-1 1.2-1.2 2 1.5-.3 3-.5 4.4-.5-.4.6-1.2 1.2-1.8 1.8-.8.6-1.3 1.4-1 2.3l4.7.7-4.4 1.2c1.7.3 3.7 1 4.2 2.6-.7-.8-1.6-1.4-2.7-1.6h-.8c-.5.2-.7.8-.6 1.3 0 .5.3 1 .4 1.6 1 4 3.5 12.3 4.5 18.3 1 5.4 1.6 11.2 1.3 16.7l-1 .2c.6-4.8.4-9.8-.6-14.6-1.2-6.4-2.6-12.3-4.6-19.2-.3-1-.4-2.4-1.4-3-.4-.2-1-.2-1.5 0-.6 0-1.3.2-1.8.6.6-1 1.5-1.5 2.6-1.8-.6-.5-3.3-1-4-1 0-.5 4-1.5 3.8-2-.2-.8-3.7-2.8-4.5-2.6.4-.8 2.7 0 3.3-.6.6-.6-.4-3.4-.7-4-.8-2.5-2-4.7-3.4-6.8.5 1 1.4 1.8 2.2 2.7"/><path fill="#3f6b2c" d="M545.4 288.8c0-2 0-4 .2-6 0-3.6 0-7 .6-10.5.3-2.3 1-4.4 1.8-6.5-.2-.2-.5-.2-.7 0-.2 0-.3.3-.4.6-1.5 3.3-1.7 7-1.8 10.7l-1 25 .7-.2c-.5-1.3.3-11 .4-13"/><path fill="#55913b" d="M550.7 261c-1.3-2.4-1.8-5.2-1.5-8-.5.8-.6 1.8-.6 2.7 0 1 0 2.3-.2 3.5l-1-1.7c0 1.7 0 3.4.3 5-.7-.2-1.3-.8-1.7-1.5 0 1 .3 2.3.4 3.4 0 .5 0 1 .4 1.3.2.4.7.7 1.2.6 0-2 1-4 2.7-5.2"/><path fill="#0a0" d="M579 230.6c-2.8 7.2-8.8 12.7-12.6 19.4-1.6 2.8-2.8 5.8-4.4 8.6-1.7 2.8-4 5.3-6 7.8-1.3 1.4-2.7 3-4.5 3.2-1.8.3-4-1.2-3.7-3h-.3c-1 .6-1.6 1.4-2.6 1.8-1 .6-2.5.6-3.2-.3-.2-.2-.3-.7-.4-1-.5-3 .4-6 2-8.5 1.4-2.5 3.5-4.7 5.5-6.8l6-6.3c2-1.8 3.7-3.6 5.7-5 5.7-4 13-5.2 18.2-9.7"/><path fill="#55913b" d="M552 254.4c.5 1 .6 2.2.5 3.3 1.8-3 4.2-5.6 6.5-8 1.5-1.7 3-3.3 4.3-5 2-2 4-4.2 6.4-5.7l-1.8.5-.4-1-2.3 4.2c-.4-1-.6-2-.5-2.8-.3 2-1.2 4-2.6 5.6 0-.6 0-1.2-.2-1.8-.5 1.7-1.4 3.3-2.8 4.5-.4-1-1-2-1.6-3 0 .8 0 1.6-.2 2.4l-.8-.2v1.6l-.5-1.2-1.2 5c-.8-.5-1.3-1.3-1.6-2 .3 1.5.2 3-.2 4.7-.6 0-1-.6-1-1"/><path fill-opacity=".2" d="M566.4 250c-1.6 2.8-2.8 5.8-4.4 8.6-1.7 2.8-4 5.3-6 7.8-1.3 1.4-2.7 3-4.5 3.2-1.8.3-4-1.2-3.7-3h-.3c0-2.3 2.3-4.3 3.8-6.3 1.6-2.2 2.5-4.8 4-7 2.2-2.8 5-4.8 7.4-7.5 1.5-1.7 2.6-3.6 4.2-5 1.7-2 4-3 6-4.4 2.3-1.6 4.3-3.5 6-5.7-2.8 7-8.8 12.6-12.6 19.3"/><path fill-opacity=".2" d="M554.2 262.7c-1 0-2 .2-2.7.5 1.2-2.5 3.4-4.5 6-5.5h-2.3c.2-.4.6-.7 1-.7l-.7-.6c2.4-2 5-3.5 7.8-4.7l-4.7.6c2.6-2 5-4 7-6.6-1.3.5-2.6 1.2-3.7 2 1-1 2-2.4 2.8-4-1 1.3-2.3 2.5-3.6 3.6-1 .8-2 1.5-2.8 2.4-1 1.2-2 2.3-3 3.7-2.7 4.3-7 8-8 13l7.2-2c-1.4-.2-3 0-4.3.5 1-1 2.5-1.8 4-2.3"/><path fill="#0a0" d="M543.3 255.3c-.7.6-1.8 0-2.3-1-.5-.8-.8-1.8-1.5-2.4-.7-.5-1.4-.5-2-.3-1.2.4-2.2 1.6-2.6 2.8-.7 2-.8 4.2-2.2 5.6-1.3 1.5-3.5 1.6-5.2.8-1.7-.8-2.8-2.4-3.5-4.2-1.8-5 0-10.6 2-15.6l9.3-23.7c1-2.7 2.6-5.8 5.4-6.4v-.2c-1.8 7.3.3 15 2 22.3 2 7.4 3.5 15.3.6 22.3"/><path fill-opacity=".1" d="M543.3 255.3c-.7.6-1.8 0-2.3-1-.5-.8-.8-1.8-1.5-2.4-.7-.5-1.4-.5-2-.3 0-.6 0-1.3.2-2 1.5-8-2-15.8-2-23.8 0-2.5.4-5 1-7.2 1-2.8 2.2-5.6 4-8-1.8 7.3.3 15 2 22.3 2 7.4 3.5 15.3.6 22.3"/><path fill-opacity=".2" d="M542.7 251c-1.3-1.2-3.3-1.7-5-1.2 1.5-8-2-16-2-24 0-2.3.4-4.7 1-7 0 .3.2.5.5.6.5 0 1-1 1.4-.8-1 1-2 2.5-2.4 4l1.2-.6c-.8 1.3-1.2 2.7-1.2 4.2l2.6-2.4c-1.2 1.5-2 3.2-2.4 5 .4-.4 1-.8 1.6-1-.7 2-1 4.2-.5 6.3l2.6-1.7-1.8 6.2c.2-.3.6.2.5.6v2h.8c.2 1.5 1.7 2.3 3 3-1.4-.7-3 .3-3.3 1.7.5-.3 1.2 0 1.5.4-.5.2-1 .5-1.3 1 2 0 3.6 2 3.3 4"/><path fill-opacity=".2" d="M537 216.8l-.7 6.4c-.2 1.5-.4 3-.3 4.5 0 1.4.4 3 .7 4.3 1 5 1.5 10 1.6 15 0 1 0 2.3-1 2.8-.5 0-1 0-1.4.2-1.5.2-2.5 1.3-3.4 2.3l-2.3 2.7c-.4.4-1 1-1.4 1-.7.4-1.4.3-1.8-.3.7.2 1.4 0 2-.6.4-.4.7-1 1-1.6 1-1.8 2.4-3.5 4.3-4-2.3 0-4.6.2-6.8 1 1.4-1.2 3.2-2 5-2.3.4 0 .7 0 1-.2 0 0 0-.2.2-.3.3-1 .2-2-.3-2.8-.5-1-1.6-1.4-2.5-1.4 1-.2 1.8-.5 2.7-1-.5-.3-.8-.6-1-1h1.2v-2c.2.2.6 0 .7-.4 0-.4 0-.7-.2-1-.5-2-1.4-4-2.5-5.5h1.6c0-1.7 0-3.5.2-5.2.2-3.7.5-7.6 2.8-10.5"/><path fill="#68994b" d="M518.5 265.4c3.8 2 6.8 5.2 9.7 8.4 1.3 1.5 2.7 3 3.3 5 .4-.5 1.2-.3 1.8 0 2 1.2 3.7 2.6 5 4.3-.4-3.3-2.6-6.2-5-8.6-3.3-3.2-7-5.6-11-8-2.2-1.5-4.4-3-7-3.6-1.6-.5-3.5-.5-5-1.5 2.2 2 5.4 2.7 8.2 4"/><path fill="#52783b" d="M510.3 261.3c3.2 2.3 7.3 3.6 10.6 6 1 .6 2 1.5 3 2.5 2 2 4 4 5.7 6.4 2 2.5 3.5 5.2 5 7.8 1.4 2 2.7 4.2 3.4 6.6.4 1.4.6 2.8.7 4.2l.8 7.4h1l-1.6-10-1-4.6c-1-2.2-2.2-4-3.5-6-4.4-6.3-9-12.8-16-16.3l-1.6-.8-1.7-.7-5-2.5"/><path fill="#52783b" d="M528.7 272.8h.5l.6.3c1.7.8 3.2 2 4.3 3.6l-2-1.2c-.4-.4-1-.7-1.7-.6 0 .3.2.5.4.7l.7.3c.8.2 1.5.6 2 1 .4.3.7.6.6 1-.7-.6-1.6-1-2.5-1v.4c.3 0 .4.2.6.3.3.2.3.7 0 1l-2.4-3c-1.5-2-3-3.8-4.8-5-.7-.6-1.4-1.2-1.3-2 .2.4.4.8.7 1 .4.2 1 0 1-.5.2 0 .3.5.4.8 0 .3.2.6.5.6.2-.2.4-.3.6-.2 0 .4.3 1 .5 1.3h.4c.2.3.5.7 1 1 0 .2.2.3.3.3M541.4 289c.6 2.8.8 5.8.7 8.7 0 1.4 0 2.8.2 4h-.8c.2-17-4-33.7-4.7-50.6.3 0 .6-.2 1 0-.2 1.6 0 3.2.2 5 .5 5.7 1 11.6 1.8 17.5 0 1.3.2 2.5.4 3.8l.6 3c.7 2.8 0 5.7.6 8.6"/><path fill="#a67c52" d="M525.3 289l1.5 7.6.3 1.6 3.7 18h20l3.7-18 .3-1.6 1.5-7.6h-31z"/><path fill="#c69c6d" d="M541.2 289l-.3 27h7l3-17.8.2-1.6 1.2-7.6h-11.2z"/><path fill="#a67c52" d="M525.3 296.6h31V289h-31v7.6z"/><path fill="#c69c6d" d="M542 296.6h10.4V289H542v7.6z"/><g fill-opacity=".2"><g clip-path="url(#z)" transform="matrix(1.25,0,0,-1.25,-5104.2227,4486.1113) translate(-3.7398691,217.63344) matrix(-1.6109823,0,0,1.6109805,5091.7287,2976.1436)"><path d="M362 98l-.2-.8h-13.5l-.2.8h14z"/></g></g><path fill="#666" d="M482.8 421h-5.6v-65.6c0-1.2 1-2.2 2.2-2.2h1.2c1.2 0 2.2 1 2.2 2.2V421z"/><path fill="#ccc" d="M481 353.2h-1c-1 0-2 1-2 2.2V421h1v-65.6c0-1.2 1-2.2 2-2.2"/><path fill="#3d3d3d" d="M482.8 419h-5.6v2h5.6v-2z"/><path fill="#666" d="M403.5 421H398v-65.6c0-1.2 1-2.2 2-2.2h1.3c1.2 0 2.2 1 2.2 2.2V421z"/><path fill="#ccc" d="M401.6 353.2h-1c-1 0-1.8 1-1.8 2.2V421h1v-65.6c0-1.2.8-2.2 1.8-2.2"/><path fill="#3d3d3d" d="M403.5 419H398v2h5.5v-2z"/><path fill="#666" d="M474.2 355h-4.5v-16.2h4.5V355z"/><path fill="#ccc" d="M472 355h-1.5v-16.2h1.4V355z"/><path fill="#666" d="M411 356h-4.4v-16h4.5v16z"/><path fill="#ccc" d="M408.8 356h-1.4v-16h1.4v16z"/><path fill="#666" d="M467.2 376.8c-18 2.7-35.8 2.8-53.7 0-7.2-1-12.5-7.2-12.5-14.5v-.3c0-5.8 5-10.3 10.8-9.8 19 1.8 38 2 57.2 0 5.7-.5 10.7 4 10.7 9.8v.3c0 7.2-5.3 13.4-12.5 14.5"/><path fill="#4d4d4d" d="M467.2 369.5c-18 2.7-35.8 2.8-53.7 0-6-.8-10.5-5-12-10.6-.3 1-.5 2-.5 3v.3c0 7.3 5.3 13.5 12.5 14.6 18 2.6 35.8 2.5 53.7-.2 7.2-1 12.5-7.3 12.5-14.5v-.3c0-1-.2-2-.5-3-1.5 5.4-6 9.7-12 10.5"/><g clip-path="url(#A)" transform="matrix(1.25,0,0,-1.25,-5104.2227,4486.1113) translate(-3.7398691,217.63344) matrix(1.6109823,0,0,1.6109805,3943.4136,2976.1434)"><path fill="#ccc" d="M293.3 76.5V74l-1 .5h-.2s-.3 0-.5.2l-.4.3v1.5h2.3z"/></g><g clip-path="url(#B)" transform="matrix(1.25,0,0,-1.25,-5104.2227,4486.1113) translate(-3.7398691,217.63344) matrix(1.6109823,0,0,1.6109805,3943.4136,2976.1434)"><path fill="#ccc" d="M324.7 77v-2l-1-.5-.8-.2h-.6V77h2.3z"/></g><path fill="#4d4d4d" d="M460 296.3h-39.2c-8.2 0-15 6.3-15.5 14.4l-1.6 24c-.2 3.2 1.8 6.2 5 7 20.6 6.4 41.7 6.6 63.3 0 3.2-.8 5.2-3.8 5-7l-1.6-24c-.5-8-7.3-14.4-15.5-14.4"/><path fill="#666" d="M419 301.5h42.7c5.4 0 10 2.5 13.3 6.4-1.8-6.8-8-11.7-15-11.7h-39.2c-7.2 0-13.3 5-15 11.6 3-4 8-6.5 13.2-6.5"/></g><path fill-opacity=".2" d="M0 0v500h161.2c-19.2-26.8-28.7-60.4-20.3-96l89-377h81.2L395 404c8 35.7-.7 69.2-18.7 96H621c-18.7-26.8-28-60.4-19.8-96l88-377h81l85 377c8 35.6-.7 69.2-19 96H1000V0H0z"/><g><path fill="#ffd49f" d="M739.6 21.6c0 5.2-4.2 9.4-9.4 9.4s-9.4-4.2-9.4-9.4 4.2-9.4 9.4-9.4 9.4 4.2 9.4 9.4"/><path fill="#fff" d="M699 0c-6.3 7.2-10.2 16.6-10.2 27h81.6c0-10.4-4-19.8-10.2-27z"/><path fill="#ebfffd" d="M699.5 0c-6.4 7.2-10.2 16.6-10.2 27H730V0h-30.5z"/></g><g><path fill="#ffd49f" d="M280.4 21.6c0 5.2-4.2 9.4-9.4 9.4s-9.4-4.2-9.4-9.4 4.2-9.4 9.4-9.4 9.4 4.2 9.4 9.4"/><path fill="#fff" d="M239.8 0c-6.3 7.2-10.2 16.6-10.2 27h81.6c0-10.4-4-19.8-10.2-27z"/><path fill="#ebfffd" d="M240.3 0C234 7.2 230 16.6 230 27H271V0h-30.5z"/></g></svg>